<svg width="23" height="23" viewBox="0 0 23 23" fill="none" xmlns="http://www.w3.org/2000/svg">
<path d="M11.5 22.6166C10.7711 22.6163 10.0546 22.4276 9.42006 22.0688L3.28672 18.5989C2.63905 18.232 2.10014 17.7001 1.72482 17.0572C1.3495 16.4144 1.15117 15.6836 1.15002 14.9392V8.06107C1.15106 7.31667 1.34933 6.58583 1.72466 5.94297C2.09999 5.30012 2.63897 4.7682 3.28672 4.40139L9.42006 0.931068C10.0546 0.572009 10.7713 0.383301 11.5004 0.383301C12.2295 0.383301 12.9462 0.572009 13.5808 0.931068L19.7141 4.40139C20.3617 4.7683 20.9005 5.30026 21.2757 5.94311C21.6509 6.58596 21.8491 7.31674 21.85 8.06107V14.9392C21.8486 15.6835 21.6502 16.4141 21.275 17.0569C20.8998 17.6997 20.3611 18.2317 19.7137 18.5989L13.5804 22.0688C12.9457 22.4277 12.2291 22.6164 11.5 22.6166V22.6166Z" fill="#30E5E5"/>
<path d="M19.9333 8.06114V14.9389C19.9333 15.3445 19.8256 15.7428 19.6211 16.093C19.4166 16.4433 19.1227 16.7329 18.7695 16.9322L12.6362 20.4026C12.2896 20.5985 11.8982 20.7015 11.5 20.7015C11.1018 20.7015 10.7104 20.5985 10.3638 20.4026L4.23045 16.9322C3.87726 16.7329 3.58338 16.4433 3.37889 16.093C3.1744 15.7428 3.06664 15.3445 3.06665 14.9389V8.06114C3.06686 7.65587 3.17473 7.25793 3.37921 6.90803C3.5837 6.55813 3.87746 6.26883 4.23045 6.06972L10.3638 2.59903C10.7104 2.40304 11.1018 2.30005 11.5 2.30005C11.8982 2.30005 12.2896 2.40304 12.6362 2.59903L18.7695 6.06972C19.1225 6.26883 19.4163 6.55813 19.6208 6.90803C19.8252 7.25793 19.9331 7.65587 19.9333 8.06114V8.06114Z" fill="#1584E8"/>
<path d="M8.4333 8.04996C8.33164 8.04996 8.23414 8.09035 8.16225 8.16224C8.09036 8.23413 8.04997 8.33163 8.04997 8.4333V12.9428L5.71163 8.26195C5.67366 8.18351 5.6101 8.12036 5.53142 8.08289C5.45274 8.04543 5.36365 8.03589 5.27882 8.05584C5.194 8.0758 5.1185 8.12406 5.06478 8.19268C5.01106 8.26129 4.98232 8.34616 4.9833 8.4333V14.5666C4.9833 14.6683 5.02369 14.7658 5.09558 14.8377C5.16747 14.9096 5.26497 14.95 5.36663 14.95C5.4683 14.95 5.5658 14.9096 5.63769 14.8377C5.70958 14.7658 5.74997 14.6683 5.74997 14.5666V10.0571L8.09022 14.738C8.12206 14.8017 8.17103 14.8553 8.23163 14.8927C8.29223 14.9302 8.36207 14.95 8.4333 14.95C8.46297 14.9499 8.49253 14.9465 8.52147 14.94C8.60555 14.9201 8.68044 14.8725 8.73402 14.8047C8.7876 14.7369 8.81671 14.653 8.81664 14.5666V8.4333C8.81664 8.33163 8.77625 8.23413 8.70436 8.16224C8.63247 8.09035 8.53497 8.04996 8.4333 8.04996Z" fill="white"/>
<path d="M13.4167 8.05005H10.35C10.2483 8.05005 10.1508 8.09044 10.079 8.16232C10.0071 8.23421 9.96667 8.33172 9.96667 8.43338V14.5667C9.96667 14.6684 10.0071 14.7659 10.079 14.8378C10.1508 14.9097 10.2483 14.9501 10.35 14.9501C10.4517 14.9501 10.5492 14.9097 10.6211 14.8378C10.693 14.7659 10.7333 14.6684 10.7333 14.5667V11.8834H12.2667C12.3683 11.8834 12.4658 11.843 12.5377 11.7711C12.6096 11.6992 12.65 11.6017 12.65 11.5C12.65 11.3984 12.6096 11.3009 12.5377 11.229C12.4658 11.1571 12.3683 11.1167 12.2667 11.1167H10.7333V8.81672H13.4167C13.5183 8.81672 13.6158 8.77633 13.6877 8.70444C13.7596 8.63255 13.8 8.53505 13.8 8.43338C13.8 8.33172 13.7596 8.23421 13.6877 8.16232C13.6158 8.09044 13.5183 8.05005 13.4167 8.05005Z" fill="white"/>
<path d="M17.6333 8.05005H14.5667C14.465 8.05005 14.3675 8.09044 14.2956 8.16232C14.2237 8.23421 14.1833 8.33172 14.1833 8.43338C14.1833 8.53505 14.2237 8.63255 14.2956 8.70444C14.3675 8.77633 14.465 8.81672 14.5667 8.81672H15.7167V14.5667C15.7167 14.6684 15.7571 14.7659 15.829 14.8378C15.9008 14.9097 15.9983 14.9501 16.1 14.9501C16.2017 14.9501 16.2992 14.9097 16.3711 14.8378C16.443 14.7659 16.4833 14.6684 16.4833 14.5667V8.81672H17.6333C17.735 8.81672 17.8325 8.77633 17.9044 8.70444C17.9763 8.63255 18.0167 8.53505 18.0167 8.43338C18.0167 8.33172 17.9763 8.23421 17.9044 8.16232C17.8325 8.09044 17.735 8.05005 17.6333 8.05005Z" fill="white"/>
</svg>
