<svg xmlns="http://www.w3.org/2000/svg" width="512.000000pt" height="512.000000pt" viewBox="0 0 512.000000 512.000000" preserveAspectRatio="xMidYMid meet"><metadata>
Created by potrace 1.16, written by Peter Selinger 2001-2019
</metadata><g transform="translate(0.000000,512.000000) scale(0.100000,-0.100000)" fill="#000000" stroke="none"><path d="M2174 4942 c-111 -39 -159 -79 -346 -285 -161 -179 -179 -202 -176 -230 4 -39 45 -64 77 -47 11 5 94 93 186 194 92 103 187 198 213 215 84 54 136 61 432 61 299 0 350 -7 435 -64 34 -22 330 -345 915 -994 475 -529 875 -979 887 -999 54 -92 53 -66 53 -1273 l0 -1116 -22 -44 c-44 -87 -148 -113 -223 -55 -58 43 -65 68 -65 220 0 122 -2 137 -20 155 -26 26 -55 25 -81 -1 -20 -20 -21 -29 -17 -167 3 -125 7 -154 25 -194 l22 -48 -523 0 -523 0 21 43 c20 41 21 55 24 525 2 316 -1 496 -8 522 -15 54 -67 119 -125 155 l-48 30 -252 3 -252 3 21 42 c18 36 21 64 24 195 3 135 1 156 -14 173 -19 21 -46 24 -75 9 -17 -10 -19 -22 -19 -128 -1 -140 -12 -197 -48 -236 -53 -56 -53 -56 -540 -56 -444 0 -448 0 -492 23 -33 16 -51 34 -67 67 -23 44 -23 48 -23 492 0 493 0 491 61 542 l34 29 5 -134 c6 -144 13 -170 67 -221 61 -58 161 -74 238 -39 22 10 60 39 84 64 70 73 129 73 190 -3 80 -100 234 -107 327 -15 51 52 64 100 64 241 l0 106 23 -14 c12 -8 32 -30 45 -48 21 -32 22 -41 22 -269 0 -268 4 -284 61 -289 60 -5 61 -3 57 296 l-3 269 -30 48 c-35 57 -100 110 -153 125 -23 6 -217 10 -517 10 l-480 0 -50 -24 c-55 -25 -119 -90 -141 -142 -11 -27 -14 -126 -14 -526 0 -470 1 -495 20 -537 11 -24 20 -45 20 -47 0 -2 -107 -4 -237 -4 -228 0 -240 -1 -288 -24 -55 -25 -119 -90 -141 -142 -11 -27 -14 -126 -14 -526 0 -470 1 -495 20 -537 11 -24 20 -45 20 -47 0 -2 -42 -4 -94 -4 l-95 0 22 48 22 47 5 1055 5 1055 27 58 c20 43 60 91 149 183 68 68 143 137 168 154 99 63 32 60 1511 60 1479 0 1412 3 1511 -60 25 -17 100 -86 168 -154 89 -92 129 -140 149 -183 l27 -58 5 -825 c3 -454 9 -831 13 -837 5 -7 26 -13 47 -13 29 0 42 5 50 20 7 14 10 273 8 842 l-3 823 -24 60 c-38 95 -81 152 -220 288 -110 108 -141 133 -208 165 l-78 37 -1445 0 -1445 0 -78 -37 c-67 -32 -98 -57 -208 -165 -139 -136 -182 -193 -220 -288 l-24 -60 -5 -1057 c-5 -1048 -5 -1057 -26 -1084 -53 -71 -121 -90 -194 -52 -33 17 -51 35 -67 68 l-23 44 0 1116 c0 1202 0 1182 53 1271 14 24 305 355 647 734 342 380 629 700 638 713 28 42 -22 101 -71 83 -20 -7 -1253 -1374 -1299 -1440 -17 -24 -41 -74 -54 -110 l-24 -66 0 -1176 0 -1175 26 -52 c28 -57 69 -96 129 -123 38 -18 133 -19 2246 -19 l2205 0 52 26 c57 28 96 69 123 129 18 38 19 99 19 1215 l0 1175 -24 66 c-12 36 -35 83 -49 104 -46 67 -1764 1970 -1804 1998 -21 14 -65 39 -98 54 l-60 28 -350 2 c-315 3 -355 1 -401 -15z m326 -2348 c0 -125 0 -126 -29 -155 -23 -23 -38 -29 -71 -29 -36 0 -47 6 -86 46 -56 57 -113 83 -183 84 -69 0 -123 -25 -180 -85 -36 -38 -49 -45 -81 -45 -48 0 -86 30 -100 78 -5 20 -10 81 -10 135 l0 97 370 0 370 0 0 -126z m-640 -1280 c0 -125 0 -126 -29 -155 -23 -23 -38 -29 -71 -29 -36 0 -47 6 -86 46 -56 57 -113 83 -183 84 -69 0 -123 -25 -180 -85 -36 -38 -49 -45 -81 -45 -48 0 -86 30 -100 78 -5 20 -10 81 -10 135 l0 97 370 0 370 0 0 -126z m1280 0 c0 -125 0 -126 -29 -155 -23 -23 -38 -29 -71 -29 -36 0 -47 6 -86 46 -56 57 -113 83 -183 84 -69 0 -123 -25 -180 -85 -36 -38 -49 -45 -81 -45 -48 0 -86 30 -100 78 -5 20 -10 81 -10 135 l0 97 370 0 370 0 0 -126z m-2108 -189 c39 -71 114 -115 195 -115 64 1 119 27 172 83 70 73 129 73 190 -3 75 -93 220 -107 314 -29 57 47 71 88 77 232 l5 129 28 -22 c62 -49 62 -43 65 -514 2 -281 -1 -446 -8 -480 -12 -57 -52 -106 -103 -125 -18 -7 -184 -11 -476 -11 -443 0 -447 0 -491 23 -33 16 -51 34 -67 67 -23 44 -23 48 -23 492 0 493 0 491 61 542 l34 29 5 -134 c4 -98 10 -142 22 -164z m1280 0 c39 -71 114 -115 195 -115 64 1 119 27 172 83 70 73 129 73 190 -3 80 -100 234 -107 327 -15 51 52 64 100 64 241 l0 106 23 -14 c12 -8 32 -30 45 -48 l23 -34 -3 -482 -3 -483 -30 -32 c-56 -59 -52 -59 -543 -59 -444 0 -448 0 -492 23 -33 16 -51 34 -67 67 -23 44 -23 48 -23 492 0 493 0 491 61 542 l34 29 5 -134 c4 -98 10 -142 22 -164z"></path><path d="M2015 4296 c-121 -56 -179 -189 -140 -322 24 -83 96 -155 179 -179 182 -53 346 70 346 261 0 114 -53 199 -155 245 -60 28 -166 25 -230 -5z m185 -108 c88 -45 113 -148 55 -224 -69 -90 -186 -83 -252 15 -49 72 -13 179 72 217 43 19 75 17 125 -8z"></path><path d="M2517 3882 c-238 -238 -251 -257 -211 -296 40 -40 58 -27 297 212 238 238 251 257 211 296 -40 40 -58 27 -297 -212z"></path><path d="M2900 3885 c-177 -55 -240 -295 -116 -442 94 -112 305 -111 404 1 98 111 93 268 -11 372 -77 77 -173 101 -277 69z m161 -128 c98 -66 105 -183 15 -252 -49 -38 -100 -42 -156 -13 -84 43 -112 145 -60 219 50 69 137 90 201 46z"></path></g></svg>